<?xml version="1.0" encoding="UTF-8"?>
<svg width="800" height="400" xmlns="http://www.w3.org/2000/svg">
  <!-- Рёбра исходного графа -->
  <line x1="320" y1="200" x2="309.625" y2="248.808" stroke="black" stroke-width="2" stroke-opacity="1.0"/>
  <line x1="320" y1="200" x2="280.296" y2="289.177" stroke="black" stroke-width="2" stroke-opacity="1.0"/>
  <line x1="320" y1="200" x2="140" y2="303.923" stroke="black" stroke-width="2" stroke-opacity="1.0"/>
  <line x1="320" y1="200" x2="102.918" y2="270.534" stroke="black" stroke-width="2" stroke-opacity="1.0"/>
  <line x1="320" y1="200" x2="82.6223" y2="224.949" stroke="black" stroke-width="2" stroke-opacity="1.0"/>
  <line x1="320" y1="200" x2="102.918" y2="129.466" stroke="black" stroke-width="2" stroke-opacity="1.0"/>
  <line x1="320" y1="200" x2="280.296" y2="110.823" stroke="black" stroke-width="2" stroke-opacity="1.0"/>
  <line x1="320" y1="200" x2="309.625" y2="151.192" stroke="black" stroke-width="2" stroke-opacity="1.0"/>
  <line x1="309.625" y1="248.808" x2="237.082" y2="314.127" stroke="black" stroke-width="2" stroke-opacity="1.0"/>
  <line x1="309.625" y1="248.808" x2="187.457" y2="319.343" stroke="black" stroke-width="2" stroke-opacity="1.0"/>
  <line x1="309.625" y1="248.808" x2="102.918" y2="129.466" stroke="black" stroke-width="2" stroke-opacity="1.0"/>
  <line x1="280.296" y1="289.177" x2="187.457" y2="319.343" stroke="black" stroke-width="2" stroke-opacity="1.0"/>
  <line x1="280.296" y1="289.177" x2="140" y2="303.923" stroke="black" stroke-width="2" stroke-opacity="1.0"/>
  <line x1="280.296" y1="289.177" x2="82.6223" y2="224.949" stroke="black" stroke-width="2" stroke-opacity="1.0"/>
  <line x1="280.296" y1="289.177" x2="82.6223" y2="175.051" stroke="black" stroke-width="2" stroke-opacity="1.0"/>
  <line x1="280.296" y1="289.177" x2="102.918" y2="129.466" stroke="black" stroke-width="2" stroke-opacity="1.0"/>
  <line x1="280.296" y1="289.177" x2="140" y2="96.077" stroke="black" stroke-width="2" stroke-opacity="1.0"/>
  <line x1="280.296" y1="289.177" x2="309.625" y2="151.192" stroke="black" stroke-width="2" stroke-opacity="1.0"/>
  <line x1="237.082" y1="314.127" x2="187.457" y2="319.343" stroke="black" stroke-width="2" stroke-opacity="1.0"/>
  <line x1="237.082" y1="314.127" x2="102.918" y2="270.534" stroke="black" stroke-width="2" stroke-opacity="1.0"/>
  <line x1="237.082" y1="314.127" x2="82.6223" y2="175.051" stroke="black" stroke-width="2" stroke-opacity="1.0"/>
  <line x1="237.082" y1="314.127" x2="187.457" y2="80.6574" stroke="black" stroke-width="2" stroke-opacity="1.0"/>
  <line x1="187.457" y1="319.343" x2="82.6223" y2="224.949" stroke="black" stroke-width="2" stroke-opacity="1.0"/>
  <line x1="187.457" y1="319.343" x2="82.6223" y2="175.051" stroke="black" stroke-width="2" stroke-opacity="1.0"/>
  <line x1="187.457" y1="319.343" x2="309.625" y2="151.192" stroke="black" stroke-width="2" stroke-opacity="1.0"/>
  <line x1="140" y1="303.923" x2="82.6223" y2="175.051" stroke="black" stroke-width="2" stroke-opacity="1.0"/>
  <line x1="140" y1="303.923" x2="237.082" y2="85.8732" stroke="black" stroke-width="2" stroke-opacity="1.0"/>
  <line x1="102.918" y1="270.534" x2="187.457" y2="80.6574" stroke="black" stroke-width="2" stroke-opacity="1.0"/>
  <line x1="102.918" y1="270.534" x2="309.625" y2="151.192" stroke="black" stroke-width="2" stroke-opacity="1.0"/>
  <line x1="82.6223" y1="224.949" x2="102.918" y2="129.466" stroke="black" stroke-width="2" stroke-opacity="1.0"/>
  <line x1="82.6223" y1="224.949" x2="187.457" y2="80.6574" stroke="black" stroke-width="2" stroke-opacity="1.0"/>
  <line x1="82.6223" y1="224.949" x2="280.296" y2="110.823" stroke="black" stroke-width="2" stroke-opacity="1.0"/>
  <line x1="82.6223" y1="175.051" x2="102.918" y2="129.466" stroke="black" stroke-width="2" stroke-opacity="1.0"/>
  <line x1="82.6223" y1="175.051" x2="187.457" y2="80.6574" stroke="black" stroke-width="2" stroke-opacity="1.0"/>
  <line x1="82.6223" y1="175.051" x2="237.082" y2="85.8732" stroke="black" stroke-width="2" stroke-opacity="1.0"/>
  <line x1="82.6223" y1="175.051" x2="309.625" y2="151.192" stroke="black" stroke-width="2" stroke-opacity="1.0"/>
  <line x1="102.918" y1="129.466" x2="140" y2="96.077" stroke="black" stroke-width="2" stroke-opacity="1.0"/>
  <line x1="102.918" y1="129.466" x2="187.457" y2="80.6574" stroke="black" stroke-width="2" stroke-opacity="1.0"/>
  <line x1="140" y1="96.077" x2="187.457" y2="80.6574" stroke="black" stroke-width="2" stroke-opacity="1.0"/>
  <line x1="140" y1="96.077" x2="237.082" y2="85.8732" stroke="black" stroke-width="2" stroke-opacity="1.0"/>
  <line x1="140" y1="96.077" x2="280.296" y2="110.823" stroke="black" stroke-width="2" stroke-opacity="1.0"/>
  <line x1="237.082" y1="85.8732" x2="280.296" y2="110.823" stroke="black" stroke-width="2" stroke-opacity="1.0"/>
  <!-- Выделенный изоморфный подграф -->
  <line x1="320" y1="200" x2="309.625" y2="248.808" stroke="red" stroke-width="4" stroke-opacity="1.0"/>
  <line x1="320" y1="200" x2="280.296" y2="289.177" stroke="red" stroke-width="4" stroke-opacity="1.0"/>
  <line x1="320" y1="200" x2="102.918" y2="129.466" stroke="red" stroke-width="4" stroke-opacity="1.0"/>
  <line x1="309.625" y1="248.808" x2="237.082" y2="314.127" stroke="red" stroke-width="4" stroke-opacity="1.0"/>
  <line x1="309.625" y1="248.808" x2="102.918" y2="129.466" stroke="red" stroke-width="4" stroke-opacity="1.0"/>
  <line x1="280.296" y1="289.177" x2="102.918" y2="129.466" stroke="red" stroke-width="4" stroke-opacity="1.0"/>
  <!-- Вершины исходного графа -->
  <circle cx="320" cy="200" r="15" fill="red" stroke="black" stroke-width="2"/>
  <text x="320" y="205" text-anchor="middle" font-size="12" font-weight="bold">0</text>
  <circle cx="309.625" cy="248.808" r="15" fill="red" stroke="black" stroke-width="2"/>
  <text x="309.625" y="253.808" text-anchor="middle" font-size="12" font-weight="bold">1</text>
  <circle cx="280.296" cy="289.177" r="15" fill="red" stroke="black" stroke-width="2"/>
  <text x="280.296" y="294.177" text-anchor="middle" font-size="12" font-weight="bold">2</text>
  <circle cx="237.082" cy="314.127" r="15" fill="red" stroke="black" stroke-width="2"/>
  <text x="237.082" y="319.127" text-anchor="middle" font-size="12" font-weight="bold">3</text>
  <circle cx="187.457" cy="319.343" r="15" fill="lightblue" stroke="black" stroke-width="2"/>
  <text x="187.457" y="324.343" text-anchor="middle" font-size="12" font-weight="bold">4</text>
  <circle cx="140" cy="303.923" r="15" fill="lightblue" stroke="black" stroke-width="2"/>
  <text x="140" y="308.923" text-anchor="middle" font-size="12" font-weight="bold">5</text>
  <circle cx="102.918" cy="270.534" r="15" fill="lightblue" stroke="black" stroke-width="2"/>
  <text x="102.918" y="275.534" text-anchor="middle" font-size="12" font-weight="bold">6</text>
  <circle cx="82.6223" cy="224.949" r="15" fill="lightblue" stroke="black" stroke-width="2"/>
  <text x="82.6223" y="229.949" text-anchor="middle" font-size="12" font-weight="bold">7</text>
  <circle cx="82.6223" cy="175.051" r="15" fill="lightblue" stroke="black" stroke-width="2"/>
  <text x="82.6223" y="180.051" text-anchor="middle" font-size="12" font-weight="bold">8</text>
  <circle cx="102.918" cy="129.466" r="15" fill="red" stroke="black" stroke-width="2"/>
  <text x="102.918" y="134.466" text-anchor="middle" font-size="12" font-weight="bold">9</text>
  <circle cx="140" cy="96.077" r="15" fill="lightblue" stroke="black" stroke-width="2"/>
  <text x="140" y="101.077" text-anchor="middle" font-size="12" font-weight="bold">10</text>
  <circle cx="187.457" cy="80.6574" r="15" fill="lightblue" stroke="black" stroke-width="2"/>
  <text x="187.457" y="85.6574" text-anchor="middle" font-size="12" font-weight="bold">11</text>
  <circle cx="237.082" cy="85.8732" r="15" fill="lightblue" stroke="black" stroke-width="2"/>
  <text x="237.082" y="90.8732" text-anchor="middle" font-size="12" font-weight="bold">12</text>
  <circle cx="280.296" cy="110.823" r="15" fill="lightblue" stroke="black" stroke-width="2"/>
  <text x="280.296" y="115.823" text-anchor="middle" font-size="12" font-weight="bold">13</text>
  <circle cx="309.625" cy="151.192" r="15" fill="lightblue" stroke="black" stroke-width="2"/>
  <text x="309.625" y="156.192" text-anchor="middle" font-size="12" font-weight="bold">14</text>
  <!-- Рёбра изоморфного подграфа -->
  <line x1="720" y1="200" x2="637.082" y2="314.127" stroke="red" stroke-width="4" stroke-opacity="1.0"/>
  <line x1="720" y1="200" x2="502.918" y2="129.466" stroke="red" stroke-width="4" stroke-opacity="1.0"/>
  <line x1="720" y1="200" x2="637.082" y2="85.8732" stroke="red" stroke-width="4" stroke-opacity="1.0"/>
  <line x1="637.082" y1="314.127" x2="502.918" y2="270.534" stroke="red" stroke-width="4" stroke-opacity="1.0"/>
  <line x1="637.082" y1="314.127" x2="637.082" y2="85.8732" stroke="red" stroke-width="4" stroke-opacity="1.0"/>
  <line x1="502.918" y1="129.466" x2="637.082" y2="85.8732" stroke="red" stroke-width="4" stroke-opacity="1.0"/>
  <!-- Вершины изоморфного подграфа -->
  <circle cx="720" cy="200" r="15" fill="red" stroke="black" stroke-width="2"/>
  <text x="720" y="205" text-anchor="middle" font-size="12" font-weight="bold">0</text>
  <circle cx="637.082" cy="314.127" r="15" fill="red" stroke="black" stroke-width="2"/>
  <text x="637.082" y="319.127" text-anchor="middle" font-size="12" font-weight="bold">1</text>
  <circle cx="502.918" cy="270.534" r="15" fill="red" stroke="black" stroke-width="2"/>
  <text x="502.918" y="275.534" text-anchor="middle" font-size="12" font-weight="bold">2</text>
  <circle cx="502.918" cy="129.466" r="15" fill="red" stroke="black" stroke-width="2"/>
  <text x="502.918" y="134.466" text-anchor="middle" font-size="12" font-weight="bold">3</text>
  <circle cx="637.082" cy="85.8732" r="15" fill="red" stroke="black" stroke-width="2"/>
  <text x="637.082" y="90.8732" text-anchor="middle" font-size="12" font-weight="bold">4</text>
  <!-- Заголовки -->
  <text x="200" y="20" text-anchor="middle" font-size="16" font-weight="bold">Исходный граф</text>
  <text x="200" y="40" text-anchor="middle" font-size="14">15 вершин, 42 рёбер</text>
  <text x="600" y="20" text-anchor="middle" font-size="16" font-weight="bold">Найденный подграф</text>
  <text x="600" y="40" text-anchor="middle" font-size="14">5 вершин, 6 рёбер</text>
  <!-- Сопоставление вершин -->
  <text x="400" y="380" text-anchor="middle" font-size="14">Сопоставление: 0→0, 1→1, 2→3, 3→2, 4→9</text>
</svg>
